<svg width="13" height="12" viewBox="0 0 13 12" fill="none" xmlns="http://www.w3.org/2000/svg">
<path id="Vector" d="M1.06699 0C0.960906 0 0.859164 0.0421427 0.784149 0.117157C0.709135 0.192172 0.666992 0.293913 0.666992 0.4C0.666992 0.506087 0.709135 0.607828 0.784149 0.682843C0.859164 0.757857 0.960906 0.8 1.06699 0.8H1.95499L2.27579 2.0856L3.47419 8.4736C3.49135 8.56526 3.54 8.64805 3.61172 8.70765C3.68344 8.76725 3.77374 8.79991 3.86699 8.8H4.66699C4.24265 8.8 3.83568 8.96857 3.53562 9.26863C3.23556 9.56869 3.06699 9.97565 3.06699 10.4C3.06699 10.8243 3.23556 11.2313 3.53562 11.5314C3.83568 11.8314 4.24265 12 4.66699 12C5.09134 12 5.4983 11.8314 5.79836 11.5314C6.09842 11.2313 6.26699 10.8243 6.26699 10.4C6.26699 9.97565 6.09842 9.56869 5.79836 9.26863C5.4983 8.96857 5.09134 8.8 4.66699 8.8H10.267C9.84265 8.8 9.43568 8.96857 9.13562 9.26863C8.83556 9.56869 8.66699 9.97565 8.66699 10.4C8.66699 10.8243 8.83556 11.2313 9.13562 11.5314C9.43568 11.8314 9.84265 12 10.267 12C10.6913 12 11.0983 11.8314 11.3984 11.5314C11.6984 11.2313 11.867 10.8243 11.867 10.4C11.867 9.97565 11.6984 9.56869 11.3984 9.26863C11.0983 8.96857 10.6913 8.8 10.267 8.8H11.067C11.1602 8.79991 11.2505 8.76725 11.3223 8.70765C11.394 8.64805 11.4426 8.56526 11.4598 8.4736L12.6598 2.0736C12.6706 2.01587 12.6686 1.95647 12.6538 1.89961C12.6391 1.84276 12.612 1.78985 12.5745 1.74464C12.537 1.69944 12.49 1.66304 12.4369 1.63804C12.3837 1.61304 12.3257 1.60005 12.267 1.6H2.97899L2.65499 0.3032C2.6334 0.216627 2.58348 0.139759 2.51318 0.0848198C2.44287 0.0298805 2.35622 2.46492e-05 2.26699 0H1.06699ZM5.46699 10.4C5.46699 10.6122 5.38271 10.8157 5.23268 10.9657C5.08265 11.1157 4.87917 11.2 4.66699 11.2C4.45482 11.2 4.25134 11.1157 4.10131 10.9657C3.95128 10.8157 3.86699 10.6122 3.86699 10.4C3.86699 10.1878 3.95128 9.98434 4.10131 9.83432C4.25134 9.68429 4.45482 9.6 4.66699 9.6C4.87917 9.6 5.08265 9.68429 5.23268 9.83432C5.38271 9.98434 5.46699 10.1878 5.46699 10.4ZM11.067 10.4C11.067 10.6122 10.9827 10.8157 10.8327 10.9657C10.6826 11.1157 10.4792 11.2 10.267 11.2C10.0548 11.2 9.85134 11.1157 9.70131 10.9657C9.55128 10.8157 9.46699 10.6122 9.46699 10.4C9.46699 10.1878 9.55128 9.98434 9.70131 9.83432C9.85134 9.68429 10.0548 9.6 10.267 9.6C10.4792 9.6 10.6826 9.68429 10.8327 9.83432C10.9827 9.98434 11.067 10.1878 11.067 10.4ZM7.86699 3.6V4.8H9.06699C9.17308 4.8 9.27482 4.84214 9.34984 4.91716C9.42485 4.99217 9.46699 5.09391 9.46699 5.2C9.46699 5.30609 9.42485 5.40783 9.34984 5.48284C9.27482 5.55786 9.17308 5.6 9.06699 5.6H7.86699V6.8C7.86699 6.90609 7.82485 7.00783 7.74984 7.08284C7.67482 7.15786 7.57308 7.2 7.46699 7.2C7.36091 7.2 7.25916 7.15786 7.18415 7.08284C7.10913 7.00783 7.06699 6.90609 7.06699 6.8V5.6H5.86699C5.76091 5.6 5.65916 5.55786 5.58415 5.48284C5.50914 5.40783 5.46699 5.30609 5.46699 5.2C5.46699 5.09391 5.50914 4.99217 5.58415 4.91716C5.65916 4.84214 5.76091 4.8 5.86699 4.8H7.06699V3.6C7.06699 3.49391 7.10913 3.39217 7.18415 3.31716C7.25916 3.24214 7.36091 3.2 7.46699 3.2C7.57308 3.2 7.67482 3.24214 7.74984 3.31716C7.82485 3.39217 7.86699 3.49391 7.86699 3.6Z" fill="#212529"/>
</svg>
