<svg width="23" height="24" viewBox="0 0 23 24" fill="none" xmlns="http://www.w3.org/2000/svg">
<path id="Vector" d="M8.57088 23.1429V17.1347C8.57088 16.7148 8.99943 16.2862 9.42797 16.2862H12.8563C13.2849 16.2862 13.7134 16.7148 13.7134 17.1433V23.1429C13.7134 23.3702 13.8037 23.5882 13.9644 23.749C14.1252 23.9097 14.3432 24 14.5705 24H21.4272C21.6545 24 21.8725 23.9097 22.0333 23.749C22.194 23.5882 22.2843 23.3702 22.2843 23.1429V11.1437C22.2845 11.031 22.2625 10.9195 22.2196 10.8154C22.1766 10.7112 22.1136 10.6166 22.034 10.5369L19.713 8.21758V2.5728C19.713 2.34548 19.6227 2.12748 19.462 1.96674C19.3013 1.80601 19.0833 1.71571 18.8559 1.71571H17.1418C16.9145 1.71571 16.6964 1.80601 16.5357 1.96674C16.375 2.12748 16.2847 2.34548 16.2847 2.5728V4.78923L11.749 0.251802C11.6694 0.171984 11.5748 0.108658 11.4706 0.0654494C11.3665 0.0222411 11.2549 0 11.1421 0C11.0294 0 10.9178 0.0222411 10.8137 0.0654494C10.7095 0.108658 10.6149 0.171984 10.5353 0.251802L0.250271 10.5369C0.17073 10.6166 0.107686 10.7112 0.064743 10.8154C0.0218 10.9195 -0.000199787 11.031 1.36705e-06 11.1437V23.1429C1.36705e-06 23.3702 0.0903014 23.5882 0.251037 23.749C0.411772 23.9097 0.629776 24 0.85709 24H7.7138C7.94111 24 8.15911 23.9097 8.31985 23.749C8.48058 23.5882 8.57088 23.3702 8.57088 23.1429Z" fill="black"/>
</svg>
