<svg width="14" height="12" viewBox="0 0 14 12" fill="none" xmlns="http://www.w3.org/2000/svg">
<path id="Vector" d="M13.1919 5.62577C13.1919 8.73281 10.3131 11.2515 6.76246 11.2515C6.12567 11.2524 5.49151 11.1697 4.87622 11.0056C4.40687 11.2435 3.32913 11.7 1.51603 11.9974C1.35529 12.0231 1.23313 11.8559 1.29662 11.7064C1.58113 11.0346 1.8383 10.1392 1.91546 9.32271C0.930947 8.33418 0.333008 7.04025 0.333008 5.62577C0.333008 2.51874 3.2118 0 6.76246 0C10.3131 0 13.1919 2.51874 13.1919 5.62577ZM4.35142 5.62577C4.35142 5.41262 4.26674 5.2082 4.11602 5.05748C3.9653 4.90676 3.76088 4.82209 3.54773 4.82209C3.33459 4.82209 3.13017 4.90676 2.97945 5.05748C2.82873 5.2082 2.74405 5.41262 2.74405 5.62577C2.74405 5.83892 2.82873 6.04334 2.97945 6.19406C3.13017 6.34478 3.33459 6.42945 3.54773 6.42945C3.76088 6.42945 3.9653 6.34478 4.11602 6.19406C4.26674 6.04334 4.35142 5.83892 4.35142 5.62577ZM7.56614 5.62577C7.56614 5.41262 7.48147 5.2082 7.33075 5.05748C7.18003 4.90676 6.97561 4.82209 6.76246 4.82209C6.54931 4.82209 6.34489 4.90676 6.19417 5.05748C6.04345 5.2082 5.95878 5.41262 5.95878 5.62577C5.95878 5.83892 6.04345 6.04334 6.19417 6.19406C6.34489 6.34478 6.54931 6.42945 6.76246 6.42945C6.97561 6.42945 7.18003 6.34478 7.33075 6.19406C7.48147 6.04334 7.56614 5.83892 7.56614 5.62577ZM9.97719 6.42945C10.1903 6.42945 10.3948 6.34478 10.5455 6.19406C10.6962 6.04334 10.7809 5.83892 10.7809 5.62577C10.7809 5.41262 10.6962 5.2082 10.5455 5.05748C10.3948 4.90676 10.1903 4.82209 9.97719 4.82209C9.76404 4.82209 9.55962 4.90676 9.4089 5.05748C9.25818 5.2082 9.17351 5.41262 9.17351 5.62577C9.17351 5.83892 9.25818 6.04334 9.4089 6.19406C9.55962 6.34478 9.76404 6.42945 9.97719 6.42945Z" fill="#212529"/>
</svg>
