<svg width="80" height="40" viewBox="0 0 80 40" fill="none" xmlns="http://www.w3.org/2000/svg">
<g id="store-black-new">
<path id="Vector" d="M67.3639 19.4366L70.0508 19.2597C70.6591 19.2597 70.7425 18.8248 70.7356 18.6102C70.6957 18.1476 70.6321 17.6874 70.545 17.2314C70.3532 16.4085 70.2026 15.6871 69.4926 15.2385C68.963 14.9418 68.1116 15.0228 67.6664 15.4428C66.775 16.2966 66.767 17.7176 66.7122 18.8328C66.7088 18.8567 66.7248 19.4788 67.3639 19.4366Z" fill="black"/>
<path id="Vector_2" d="M45.5453 17.5237C44.8696 16.6821 44.1684 16.3861 43.4418 16.6357C42.715 16.8853 42.3464 17.5496 42.3358 18.6286C42.3243 19.7046 42.6378 21.1804 43.2763 23.056C43.9146 24.9317 44.5675 26.2938 45.2349 27.1422C45.9015 27.9792 46.598 28.2748 47.3248 28.0291C48.0514 27.7833 48.4254 27.1194 48.4468 26.0373C48.4657 24.9621 48.1553 23.4829 47.5154 21.5996C46.8754 19.7163 46.2188 18.3577 45.5453 17.5237Z" fill="black"/>
<path id="Vector_3" d="M79.8599 30.0139L78.2106 5.35986C78.1082 3.84383 77.4097 2.43002 76.2677 1.4277C75.1256 0.42537 73.6331 -0.083894 72.1167 0.0112985L18.0615 3.65577C17.2781 3.70886 16.5143 3.92419 15.8186 4.2881C15.0068 4.67877 14.2831 5.23107 13.6922 5.91116L1.77037 19.6079C0.609344 20.9505 0.024573 22.6967 0.142954 24.4677C0.261334 26.2387 1.07332 27.8916 2.4027 29.0677L12.9811 38.353C14.2458 39.4632 15.8853 40.0508 17.5673 39.9966C18.138 39.9794 20.0623 39.8071 20.4778 39.7785L74.533 36.1341C76.049 36.0237 77.4599 35.3183 78.4578 34.1718C79.4557 33.0253 79.9598 31.5306 79.8599 30.0139ZM9.69848 26.9664C9.12754 26.9687 8.56878 26.8015 8.09296 26.4859C7.61714 26.1703 7.24567 25.7207 7.02561 25.1938C6.80556 24.667 6.74681 24.0867 6.85681 23.5265C6.96681 22.9662 7.24061 22.4512 7.64353 22.0467C8.04644 21.6422 8.56035 21.3663 9.12016 21.2541C9.67997 21.1419 10.2605 21.1983 10.7882 21.4163C11.3159 21.6343 11.767 22.004 12.0845 22.4785C12.4019 22.9531 12.5714 23.5112 12.5714 24.0821C12.5721 24.4602 12.4985 24.8346 12.3544 25.1841C12.2105 25.5336 11.9991 25.8514 11.7322 26.1193C11.4655 26.3871 11.1486 26.5998 10.7996 26.7451C10.4507 26.8905 10.0765 26.9656 9.69848 26.9664ZM30.207 26.6514C29.8659 27.3827 29.3528 28.0206 28.7118 28.5107C28.0028 29.0417 27.204 29.4407 26.3537 29.6886C25.8136 29.8523 25.263 29.9786 24.7055 30.0664C23.8175 30.2377 22.0461 30.4842 20.1913 30.2103L20.0589 30.1886C20.0041 30.1794 19.9505 30.1714 19.8968 30.1612C19.8432 30.1509 19.7747 30.1395 19.7142 30.1269L19.656 30.1155L19.6012 30.1041C19.5396 30.0916 19.4768 30.0779 19.4152 30.063L19.2839 30.0311L19.1298 29.9923L19.0956 29.9831C19.0339 29.9671 18.9814 29.95 18.9278 29.9329H18.9358C17.9142 29.5768 16.8208 28.9833 16.3106 28.0108C16.2204 27.8406 16.1503 27.6606 16.1017 27.4743C16.1017 27.4595 16.0949 27.4447 16.0903 27.4298C16.0341 27.2057 16.0032 26.976 15.9978 26.745C15.9942 26.5253 16.0222 26.3061 16.0812 26.0944C16.1732 25.7633 16.3396 25.4575 16.5676 25.2003C16.7957 24.9432 17.0794 24.7415 17.3972 24.6106C17.62 24.5186 17.8564 24.4635 18.0969 24.4474C18.3925 24.428 18.689 24.4671 18.9695 24.5624C19.25 24.6577 19.509 24.8075 19.7316 25.0029C19.9541 25.1984 20.1361 25.4358 20.2669 25.7016C20.3977 25.9675 20.4747 26.2565 20.4938 26.5521C20.5022 26.6845 20.4992 26.8174 20.4847 26.9493C20.4721 27.0673 20.45 27.1841 20.4185 27.2986C20.3235 27.542 20.2895 27.8049 20.3192 28.0644C20.339 28.2206 20.3981 28.3691 20.4909 28.4962C20.5837 28.6234 20.7072 28.725 20.8499 28.7915C21.0243 28.8704 21.2114 28.9175 21.4023 28.9308C21.7214 28.9545 22.0415 28.9594 22.3611 28.9456C23.0459 28.9228 23.7399 28.8748 24.3916 28.6671C25.1131 28.4308 25.7431 27.9756 26.1939 27.3648C26.542 26.9082 26.5466 26.2941 26.4701 25.7132C26.3931 25.4404 26.2662 25.1841 26.0957 24.9576C25.7952 24.5636 25.4343 24.2195 25.0263 23.9383C24.5514 23.6067 24.0498 23.3154 23.5265 23.0674C22.9634 22.7973 22.3831 22.5233 21.7858 22.2456C21.1056 21.9306 20.4291 21.5973 19.7565 21.2458C19.1083 20.9094 18.4964 20.5074 17.9302 20.0462C17.3937 19.6146 16.9323 19.097 16.5651 18.5144C16.1949 17.9023 15.983 17.2075 15.9488 16.493C15.8886 15.7807 15.9804 15.0636 16.2181 14.3894C16.2181 14.3894 16.8162 11.9274 20.9732 10.608C21.6296 10.3977 22.3107 10.2746 22.9991 10.2416C23.1932 10.2336 23.3838 10.2416 23.5698 10.253C24.4876 10.2875 25.3955 10.4559 26.2647 10.7529H26.2578C26.8556 10.9454 27.4128 11.2464 27.9014 11.6409C28.1844 11.8666 28.4193 12.1469 28.592 12.465C28.6694 12.6123 28.7303 12.7677 28.7735 12.9284C28.7735 12.9421 28.7792 12.9547 28.7826 12.9672C28.8311 13.1619 28.8579 13.3614 28.8625 13.5619C28.8731 14.0638 28.6901 14.5504 28.3516 14.921C28.0131 15.2916 27.545 15.5177 27.0442 15.5525C26.5146 15.5759 25.9964 15.3937 25.5981 15.0441C25.1996 14.6944 24.9518 14.2042 24.9064 13.676C24.8988 13.5619 24.9015 13.4473 24.9144 13.3336V13.3279C24.9258 13.2258 24.9449 13.1248 24.9715 13.0255C25.0091 12.6956 24.9897 12.1694 24.5948 11.7939C24.4463 11.6732 24.2763 11.5819 24.0937 11.5245C24.0355 11.5074 23.9796 11.4914 23.9145 11.4777C23.7304 11.4475 23.5442 11.4326 23.3575 11.4332C23.0813 11.4332 22.8211 11.4469 22.5723 11.4617C21.8688 11.5745 21.2085 11.8741 20.6604 12.3292C20.6456 12.3463 20.6296 12.3612 20.6159 12.3783C20.4025 12.638 20.2413 12.9363 20.1411 13.2572C20.036 13.595 19.9968 13.95 20.0258 14.3027C20.0525 14.762 20.2307 15.1995 20.5326 15.5468C20.6831 15.7214 20.846 15.8851 21.02 16.0364C21.2118 16.1976 21.4139 16.3463 21.6249 16.4816C21.9299 16.6765 22.245 16.8552 22.5688 17.0169C22.756 17.1105 22.9478 17.2029 23.1475 17.2908C23.7037 17.5359 24.2486 17.7725 24.782 18.0008C25.5133 18.3127 26.2182 18.6465 26.897 19.0018C27.5493 19.3411 28.1602 19.7548 28.7175 20.2345C29.2487 20.6958 29.6936 21.2482 30.0313 21.8655C30.3889 22.5489 30.5923 23.3024 30.6271 24.073C30.6925 25.0546 30.5525 25.9141 30.207 26.6514ZM52.253 22.7182C52.1856 23.5634 51.9455 24.3857 51.5476 25.1345C51.1358 25.8989 50.5805 26.5766 49.912 27.1308C49.19 27.7323 48.3615 28.1931 47.4695 28.489C46.5884 28.8014 45.6562 28.9439 44.7221 28.9091C43.8599 28.878 43.0116 28.6816 42.2236 28.3304C41.6189 28.0568 41.063 27.6863 40.5777 27.2335C39.9188 28.0494 39.0539 28.6743 38.0724 29.0438C37.4314 29.2971 36.7532 29.4437 36.0647 29.4775C35.5827 29.5083 35.0987 29.4699 34.6277 29.3633C34.1647 29.2579 33.7263 29.0641 33.3367 28.7926C32.9533 28.5183 32.6381 28.1594 32.4156 27.7437C32.1674 27.2639 32.0264 26.7357 32.0024 26.196L31.5105 18.8534C31.474 18.3763 31.3724 18.2028 30.8907 18.2051L30.6191 18.2234C29.6078 18.2918 29.1045 17.0158 29.8886 16.3697L33.9554 13.0163C34.1027 12.8933 34.2814 12.8133 34.4714 12.7853C34.6613 12.7572 34.8554 12.7823 35.032 12.8577C35.2087 12.933 35.3611 13.0557 35.4724 13.2122C35.5838 13.3687 35.6497 13.5529 35.6629 13.7445L35.6949 14.2136L35.7451 14.967C35.7827 15.5377 35.8877 15.7032 36.5349 15.6598L37.2198 15.6141C37.4993 15.6034 37.7721 15.7021 37.98 15.8893C38.188 16.0765 38.3148 16.3374 38.3335 16.6166C38.3522 16.8958 38.2614 17.1712 38.0804 17.3845C37.8992 17.5978 37.6421 17.7321 37.3636 17.7588L36.5144 17.8159C36.019 17.8809 35.9539 18.0761 35.9882 18.592L36.4619 25.7988C36.5052 26.4471 36.6764 26.92 36.9755 27.2175C37.2745 27.5151 37.6786 27.6467 38.1877 27.6124C38.6172 27.5884 39.0414 27.5062 39.4489 27.3682C39.639 27.302 39.823 27.2196 39.999 27.1217C40.031 27.1011 40.0652 27.0806 40.0961 27.0589C40.1451 27.0258 40.2102 26.9801 40.2696 26.9322L40.1908 26.85C39.3001 25.8735 38.731 24.6468 38.5608 23.336C38.3905 22.0253 38.6272 20.6939 39.2389 19.5223C39.646 18.758 40.1972 18.0798 40.8619 17.5248C41.5763 16.9262 42.3972 16.4676 43.2817 16.1734C44.1696 15.8599 45.1085 15.7163 46.0496 15.75C46.9164 15.7777 47.7695 15.975 48.5606 16.3309C49.3313 16.6822 50.0223 17.1872 50.5912 17.8147C51.1811 18.4796 51.6325 19.2556 51.9186 20.0973C52.2048 20.9388 52.32 21.8291 52.2576 22.7159L52.253 22.7182ZM61.2769 18.9105C61.1764 19.0497 60.9664 18.8979 60.8648 18.7587C60.5042 18.261 60.0373 17.8239 59.4689 17.5922C58.9005 17.3605 58.2225 17.357 57.6952 17.6698L58.1597 24.2545C58.1894 24.6711 58.2259 25.1094 58.4633 25.4529C58.6836 25.7714 59.0432 25.9586 59.3274 26.2222C59.6116 26.4859 59.8262 26.9128 59.6413 27.2495C59.4564 27.5862 59.0329 27.6364 58.6631 27.6615L53.5006 28.0039C53.2175 28.0233 52.9013 28.0313 52.689 27.8419C52.3592 27.5485 52.5064 26.9904 52.7838 26.6468C53.0611 26.3033 53.4515 26.0328 53.6056 25.6196C53.7083 25.3422 53.6912 25.0352 53.6729 24.7396L53.3305 19.3043C53.3298 18.9974 53.2741 18.6932 53.1661 18.406C53.02 18.0795 52.745 17.8353 52.5509 17.5271C52.3991 17.2908 52.2907 16.9712 52.3831 16.6927C52.4836 16.3914 52.7701 16.2727 53.0474 16.1848L56.2559 15.1701C56.5275 15.0845 56.8266 14.9989 57.0914 15.0982C57.2192 15.1559 57.3313 15.2432 57.4185 15.353C57.5057 15.4628 57.5653 15.5919 57.5925 15.7294C57.6447 16.0053 57.652 16.2878 57.6141 16.5661C58.3239 15.8162 59.2156 15.2628 60.2028 14.9601C60.6286 14.8311 61.165 14.7798 61.4492 15.1233C61.6638 15.3824 61.6398 15.7568 61.6045 16.0912C61.6045 16.1586 61.4561 17.4872 61.4264 17.7668C61.3967 18.0464 61.3282 18.7119 61.3202 18.7644C61.3165 18.8156 61.3016 18.8655 61.2769 18.9105ZM66.7761 20.311C66.8404 20.9996 67.0022 21.6756 67.2566 22.3187C67.4662 22.8452 67.7729 23.3275 68.1606 23.7408C68.5179 24.114 68.9594 24.3962 69.4481 24.5638C69.9686 24.7388 70.5193 24.8055 71.0666 24.7601C71.4076 24.7395 71.7459 24.6859 72.0767 24.6003C72.3694 24.5245 72.6556 24.4257 72.9328 24.3047C73.1742 24.1996 73.406 24.0736 73.6256 23.928C73.7534 23.8424 73.9589 23.6712 74.0707 23.6096H74.0787C74.0985 23.6006 74.1198 23.5959 74.1415 23.5959C74.1796 23.5947 74.2168 23.6082 74.2454 23.6336C74.2615 23.6481 74.2744 23.6656 74.2834 23.6853C74.2924 23.7048 74.2973 23.7261 74.2979 23.7477C74.2999 23.7652 74.2977 23.7827 74.291 23.7991V23.8082C74.2111 24.0365 73.7021 24.7795 73.4373 25.1025C73.0928 25.5194 72.6913 25.8855 72.2445 26.1903C71.7772 26.5059 71.2677 26.7537 70.731 26.9265C70.1173 27.1213 69.4814 27.2382 68.8386 27.2746C67.9717 27.3452 67.0995 27.2445 66.2716 26.9778C65.5232 26.7321 64.8352 26.3311 64.2525 25.8011C63.6701 25.2607 63.2051 24.6065 62.8862 23.879C62.5388 23.0882 62.3358 22.2416 62.287 21.3793C62.2153 20.456 62.3139 19.5275 62.5781 18.64C62.8197 17.8312 63.2249 17.0806 63.7685 16.4348C64.3142 15.7996 64.9858 15.2846 65.7409 14.9224C66.5636 14.529 67.4555 14.3006 68.3661 14.2502C69.1861 14.1803 70.0118 14.2786 70.7927 14.5389C71.4843 14.7725 72.1187 15.1498 72.6543 15.6461C73.1785 16.1397 73.5971 16.7346 73.8847 17.3947C74.1156 17.9425 74.274 18.5181 74.3561 19.1068C74.3561 19.5634 74.1141 19.7129 73.9121 19.7642L66.7841 20.2448C66.7795 20.2938 66.7704 20.2265 66.7761 20.311Z" fill="black"/>
</g>
</svg>
