<svg width="16" height="16" viewBox="0 0 16 16" fill="none" xmlns="http://www.w3.org/2000/svg">
<path id="Vector" d="M15.256 0.744C15.3334 0.821385 15.3948 0.913261 15.4367 1.01438C15.4786 1.1155 15.5002 1.22388 15.5002 1.33333C15.5002 1.44279 15.4786 1.55117 15.4367 1.65229C15.3948 1.75341 15.3334 1.84528 15.256 1.92267L1.92267 15.256C1.84527 15.3334 1.7534 15.3948 1.65228 15.4367C1.55116 15.4786 1.44278 15.5001 1.33333 15.5001C1.22388 15.5001 1.11551 15.4786 1.01439 15.4367C0.91327 15.3948 0.821392 15.3334 0.744 15.256C0.666608 15.1786 0.605217 15.0867 0.563332 14.9856C0.521448 14.8845 0.49989 14.7761 0.49989 14.6667C0.49989 14.5572 0.521448 14.4488 0.563332 14.3477C0.605217 14.2466 0.666608 14.1547 0.744 14.0773L14.0773 0.744C14.1547 0.666595 14.2466 0.605192 14.3477 0.5633C14.4488 0.521407 14.5572 0.499845 14.6667 0.499845C14.7761 0.499845 14.8845 0.521407 14.9856 0.5633C15.0867 0.605192 15.1786 0.666595 15.256 0.744ZM3.33333 5.33333C2.8029 5.33333 2.29419 5.12262 1.91912 4.74755C1.54405 4.37247 1.33333 3.86377 1.33333 3.33333C1.33333 2.8029 1.54405 2.29419 1.91912 1.91912C2.29419 1.54405 2.8029 1.33333 3.33333 1.33333C3.86377 1.33333 4.37247 1.54405 4.74755 1.91912C5.12262 2.29419 5.33333 2.8029 5.33333 3.33333C5.33333 3.86377 5.12262 4.37247 4.74755 4.74755C4.37247 5.12262 3.86377 5.33333 3.33333 5.33333ZM3.33333 6.66667C4.21739 6.66667 5.06523 6.31548 5.69036 5.69036C6.31548 5.06523 6.66667 4.21739 6.66667 3.33333C6.66667 2.44928 6.31548 1.60143 5.69036 0.976311C5.06523 0.351189 4.21739 0 3.33333 0C2.44928 0 1.60143 0.351189 0.976311 0.976311C0.351189 1.60143 0 2.44928 0 3.33333C0 4.21739 0.351189 5.06523 0.976311 5.69036C1.60143 6.31548 2.44928 6.66667 3.33333 6.66667ZM12.6667 14.6667C12.1362 14.6667 11.6275 14.456 11.2525 14.0809C10.8774 13.7058 10.6667 13.1971 10.6667 12.6667C10.6667 12.1362 10.8774 11.6275 11.2525 11.2525C11.6275 10.8774 12.1362 10.6667 12.6667 10.6667C13.1971 10.6667 13.7058 10.8774 14.0809 11.2525C14.456 11.6275 14.6667 12.1362 14.6667 12.6667C14.6667 13.1971 14.456 13.7058 14.0809 14.0809C13.7058 14.456 13.1971 14.6667 12.6667 14.6667ZM12.6667 16C13.5507 16 14.3986 15.6488 15.0237 15.0237C15.6488 14.3986 16 13.5507 16 12.6667C16 11.7826 15.6488 10.9348 15.0237 10.3096C14.3986 9.68452 13.5507 9.33333 12.6667 9.33333C11.7826 9.33333 10.9348 9.68452 10.3096 10.3096C9.68452 10.9348 9.33333 11.7826 9.33333 12.6667C9.33333 13.5507 9.68452 14.3986 10.3096 15.0237C10.9348 15.6488 11.7826 16 12.6667 16Z" fill="black"/>
</svg>
