<svg xmlns="http://www.w3.org/2000/svg" version="1.1" xmlns:xlink="http://www.w3.org/1999/xlink" xmlns:svgjs="http://svgjs.dev/svgjs" width="1000" height="1000" viewBox="0 0 1000 1000"><rect width="1000" height="1000" fill="#ffffff"></rect><g transform="matrix(0.7,0,0,0.7,149.57575757575756,420.71688332345)"><svg viewBox="0 0 396 90" data-background-color="#ffe300" preserveAspectRatio="xMidYMid meet" height="227" width="1000" xmlns="http://www.w3.org/2000/svg" xmlns:xlink="http://www.w3.org/1999/xlink"><g id="tight-bounds" transform="matrix(1,0,0,1,0.2400000000000091,-0.09452170617055344)"><svg viewBox="0 0 395.52 90.18904341234112" height="90.18904341234112" width="395.52"><g><svg viewBox="0 0 527.9266946943204 120.38127929389114" height="90.18904341234112" width="395.52"><g transform="matrix(1,0,0,1,0,16.637354808345307)"><svg viewBox="0 0 395.52 87.10656967720053" height="87.10656967720053" width="395.52"><g id="textblocktransform"><svg viewBox="0 0 395.52 87.10656967720053" height="87.10656967720053" width="395.52" id="textblock"><g><svg viewBox="0 0 395.52 50.93874599887027" height="50.93874599887027" width="395.52"><g transform="matrix(1,0,0,1,0,0)"><svg width="395.52" viewBox="3.25 -33.70000076293945 265.5299987792969 34.20000076293945" height="50.93874599887027" data-palette-color="#1d1d1d"><path d="M17.8 0L17.8 0 3.25 0 3.25-33.7 16.35-33.7Q21.9-33.7 24.8-31.08 27.7-28.45 27.7-24.4L27.7-24.4Q27.7-21.75 26.3-19.75 24.9-17.75 22.65-17.05L22.65-17.05Q28.5-15.3 28.5-9.15L28.5-9.15Q28.5-5.15 25.63-2.58 22.75 0 17.8 0ZM15.05-27.55L15.05-27.55 10.95-27.55 10.95-20 13.8-20Q16.8-20 18.32-21.1 19.85-22.2 19.85-24L19.85-24Q19.85-27.55 15.05-27.55ZM15.05-13.95L15.05-13.95 10.95-13.95 10.95-6.15 15-6.15Q20.7-6.15 20.7-10.05 20.7-13.95 15.05-13.95ZM54.45-6.15L54.45 0 33.5 0 33.5-33.7 54.25-33.7 54.25-27.55 41.25-27.55 41.25-19.9 52.85-19.9 52.85-13.8 41.25-13.8 41.25-6.15 54.45-6.15ZM80.85-6.75L80.85 0 60.7 0 60.7-33.7 68.4-33.7 68.4-6.75 80.85-6.75ZM95.29-14.3L95.29-14.3 94.94-13.1 103.04-13.1 102.69-14.3Q101.24-19.2 100.32-22.65 99.39-26.1 99.19-27.1L99.19-27.1 98.99-28.1Q98.59-25.35 95.29-14.3ZM93.09-6.9L91.04 0 82.99 0 94.24-33.7 103.94-33.7 115.19 0 106.94 0 104.89-6.9 93.09-6.9ZM127.29-13.95L127.29 0 119.59 0 119.59-33.7 128.04-33.7 135.89-19.75Q137.54-16.8 138.77-14.23 139.99-11.65 140.34-10.6L140.34-10.6 140.74-9.5Q140.24-13.2 140.24-19.75L140.24-19.75 140.24-33.7 147.94-33.7 147.94 0 139.49 0 131.44-13.95Q129.84-16.65 128.62-19.28 127.39-21.9 126.94-23.15L126.94-23.15 126.54-24.4Q127.29-19.9 127.29-13.95L127.29-13.95ZM167.79-33.65L167.79-10.2Q167.79-5.35 165.21-2.65 162.64 0.05 158.04 0.05L158.04 0.05Q154.59 0.05 152.69-0.95L152.69-0.95 152.69-7.75Q154.54-6.6 156.54-6.6L156.54-6.6Q160.09-6.6 160.09-10.4L160.09-10.4 160.09-33.65 167.79-33.65ZM184.24-14.3L184.24-14.3 183.89-13.1 191.99-13.1 191.64-14.3Q190.19-19.2 189.26-22.65 188.34-26.1 188.14-27.1L188.14-27.1 187.94-28.1Q187.54-25.35 184.24-14.3ZM182.04-6.9L179.99 0 171.94 0 183.19-33.7 192.89-33.7 204.14 0 195.89 0 193.84-6.9 182.04-6.9ZM225.58-16.85L237.53 0 227.88 0 216.58-16.75 227.48-33.7 236.63-33.7 225.58-16.85ZM216.23-33.7L216.23 0 208.53 0 208.53-33.7 216.23-33.7ZM268.78-33.7L268.78-13.05Q268.78-6.45 265.08-2.98 261.38 0.5 255.08 0.5L255.08 0.5Q248.88 0.5 245.13-2.95 241.38-6.4 241.38-12.7L241.38-12.7 241.38-33.7 249.08-33.7 249.08-12.75Q249.08-6.5 255.08-6.5 261.08-6.5 261.08-13L261.08-13 261.08-33.7 268.78-33.7Z" opacity="1" transform="matrix(1,0,0,1,0,0)" fill="#000000" class="wordmark-text-0" data-fill-palette-color="primary" id="text-0"></path></svg></g></svg></g><g transform="matrix(1,0,0,1,94.9248,62.96416139929956)"><svg viewBox="0 0 300.5952 24.142408277900962" height="24.142408277900962" width="300.5952"><g transform="matrix(1,0,0,1,0,0)"><svg width="300.5952" viewBox="5.099999904632568 -38.849998474121094 601.3500366210938 48.89999771118164" height="24.142408277900962" data-palette-color="#454545"><g class="slogan-text-1" data-fill-palette-color="secondary" id="text-1"><path d="M5.1-36.3L15.1-36.3Q19.15-36.3 22.03-34.93 24.9-33.55 26.43-31 27.95-28.45 27.95-24.8L27.95-24.8Q27.95-22.65 27.3-20.55 26.65-18.45 25.23-16.73 23.8-15 21.45-13.98 19.1-12.95 15.75-12.95L15.75-12.95 10.45-12.95 10.45 0 5.1 0 5.1-36.3ZM10.45-18.1L15.75-18.1Q17.75-18.1 19.1-18.78 20.45-19.45 21.23-20.5 22-21.55 22.33-22.68 22.65-23.8 22.65-24.7L22.65-24.7Q22.65-25.7 22.33-26.83 22-27.95 21.25-28.93 20.5-29.9 19.2-30.53 17.9-31.15 15.95-31.15L15.95-31.15 10.45-31.15 10.45-18.1ZM42.85 0.5L42.85 0.5Q39.9 0.5 37.5-0.73 35.1-1.95 33.7-4.4 32.3-6.85 32.3-10.45L32.3-10.45Q32.3-14 33.77-16.55 35.25-19.1 37.67-20.48 40.1-21.85 42.95-21.85L42.95-21.85Q45.95-21.85 47.87-20.58 49.8-19.3 50.9-17.6L50.9-17.6 50.55-16.8 51.05-20.95 55.8-20.95 55.8 0 50.65 0 50.65-5.25 51.2-4Q51-3.6 50.35-2.88 49.7-2.15 48.62-1.35 47.55-0.55 46.12-0.03 44.7 0.5 42.85 0.5ZM44.25-3.7L44.25-3.7Q45.9-3.7 47.2-4.3 48.5-4.9 49.4-6 50.3-7.1 50.65-8.6L50.65-8.6 50.65-12.95Q50.25-14.35 49.3-15.38 48.35-16.4 47.02-17 45.7-17.6 44.1-17.6L44.1-17.6Q42.3-17.6 40.8-16.73 39.3-15.85 38.4-14.3 37.5-12.75 37.5-10.7L37.5-10.7Q37.5-8.75 38.42-7.15 39.35-5.55 40.9-4.63 42.45-3.7 44.25-3.7ZM69.8 0.45L69.8 0.45Q67.5 0.45 65.34-0.38 63.2-1.2 61.8-2.8L61.8-2.8 64-5.7Q65.34-4.45 66.72-3.83 68.09-3.2 69.34-3.2L69.34-3.2Q70.34-3.2 71.15-3.43 71.95-3.65 72.45-4.2 72.95-4.75 72.95-5.65L72.95-5.65Q72.95-6.7 72.25-7.3 71.55-7.9 70.45-8.3 69.34-8.7 68.09-9.05L68.09-9.05Q65.45-9.9 64.09-11.48 62.75-13.05 62.75-15.2L62.75-15.2Q62.75-16.85 63.57-18.32 64.4-19.8 66.09-20.75 67.8-21.7 70.3-21.7L70.3-21.7Q72.59-21.7 74.34-21.18 76.09-20.65 77.59-19.4L77.59-19.4 75.59-16.3Q74.7-17.2 73.47-17.68 72.25-18.15 71.25-18.2L71.25-18.2Q70.34-18.2 69.59-17.93 68.84-17.65 68.4-17.13 67.95-16.6 67.95-15.9L67.95-15.9Q67.9-14.9 68.62-14.28 69.34-13.65 70.5-13.28 71.65-12.9 72.75-12.5L72.75-12.5Q74.3-12.05 75.5-11.28 76.7-10.5 77.4-9.4 78.09-8.3 78.09-6.6L78.09-6.6Q78.09-4.75 77.2-3.13 76.3-1.5 74.45-0.53 72.59 0.45 69.8 0.45ZM86.44-20.9L86.44-30.15 91.59-30.15 91.59-20.9 97.19-20.9 97.19-16.85 91.59-16.85 91.59 0 86.44 0 86.44-16.85 82.74-16.85 82.74-20.9 86.44-20.9ZM102.74 0L102.74-20.95 107.89-20.95 107.89 0 102.74 0ZM102.44-28.45L102.44-28.45Q102.44-29.65 103.39-30.45 104.34-31.25 105.44-31.25L105.44-31.25Q106.59-31.25 107.49-30.45 108.39-29.65 108.39-28.45L108.39-28.45Q108.39-27.25 107.49-26.48 106.59-25.7 105.44-25.7L105.44-25.7Q104.34-25.7 103.39-26.48 102.44-27.25 102.44-28.45ZM115.74-20.95L120.34-20.95 120.79-16.15 120.59-16.8Q121.64-19.05 123.84-20.43 126.04-21.8 129.04-21.8L129.04-21.8Q131.99-21.8 133.91-20.05 135.84-18.3 135.89-15.5L135.89-15.5 135.89 0 130.74 0 130.74-13.7Q130.69-15.3 129.79-16.32 128.89-17.35 126.99-17.4L126.99-17.4Q125.29-17.4 123.89-16.38 122.49-15.35 121.69-13.6 120.89-11.85 120.89-9.55L120.89-9.55 120.89 0 115.74 0 115.74-20.95ZM150.59 10.05L145.53 10.05 159.39-20.95 164.09-20.95 150.59 10.05ZM154.78-2.45L150.84 0.15 140.69-20.95 146.49-20.95 154.78-2.45ZM177.63 0.5L177.63 0.5Q174.68 0.5 172.28-0.73 169.88-1.95 168.48-4.4 167.08-6.85 167.08-10.45L167.08-10.45Q167.08-14 168.56-16.55 170.03-19.1 172.46-20.48 174.88-21.85 177.73-21.85L177.73-21.85Q180.73-21.85 182.66-20.58 184.58-19.3 185.68-17.6L185.68-17.6 185.33-16.8 185.83-20.95 190.58-20.95 190.58 0 185.43 0 185.43-5.25 185.98-4Q185.78-3.6 185.13-2.88 184.48-2.15 183.41-1.35 182.33-0.55 180.91-0.03 179.48 0.5 177.63 0.5ZM179.03-3.7L179.03-3.7Q180.68-3.7 181.98-4.3 183.28-4.9 184.18-6 185.08-7.1 185.43-8.6L185.43-8.6 185.43-12.95Q185.03-14.35 184.08-15.38 183.13-16.4 181.81-17 180.48-17.6 178.88-17.6L178.88-17.6Q177.08-17.6 175.58-16.73 174.08-15.85 173.18-14.3 172.28-12.75 172.28-10.7L172.28-10.7Q172.28-8.75 173.21-7.15 174.13-5.55 175.68-4.63 177.23-3.7 179.03-3.7Z" fill="#000000" data-fill-palette-color="primary"></path><path d="M215.58 0L210.43 0 210.43-38.85 215.43-38.85 215.43-16.2 215.38-17.05Q216.43-19.1 218.58-20.45 220.73-21.8 223.73-21.8L223.73-21.8Q226.68-21.8 228.6-20.05 230.53-18.3 230.58-15.5L230.58-15.5 230.58 0 225.43 0 225.43-13.7Q225.38-15.3 224.48-16.32 223.58-17.35 221.68-17.4L221.68-17.4Q219.98-17.4 218.58-16.38 217.18-15.35 216.38-13.58 215.58-11.8 215.58-9.55L215.58-9.55 215.58 0ZM248.33 0.5L248.33 0.5Q244.68 0.5 242.08-0.93 239.48-2.35 238.08-4.88 236.68-7.4 236.68-10.65L236.68-10.65Q236.68-13.75 238.25-16.28 239.83-18.8 242.5-20.3 245.18-21.8 248.43-21.8L248.43-21.8Q252.63-21.8 255.4-19.35 258.18-16.9 259.13-12.5L259.13-12.5 242.08-6.6 240.88-9.6 254.53-14.5 253.48-13.85Q252.88-15.4 251.58-16.57 250.28-17.75 248.03-17.75L248.03-17.75Q246.23-17.75 244.8-16.88 243.38-16 242.55-14.48 241.73-12.95 241.73-10.9L241.73-10.9Q241.73-8.8 242.6-7.23 243.48-5.65 245-4.75 246.53-3.85 248.43-3.85L248.43-3.85Q249.78-3.85 251-4.35 252.23-4.85 253.33-5.6L253.33-5.6 255.68-1.8Q254.03-0.75 252.1-0.13 250.18 0.5 248.33 0.5ZM264.82-20.95L269.42-20.95 269.87-16.45 269.67-16.8Q270.87-19.15 272.97-20.48 275.07-21.8 277.82-21.8L277.82-21.8Q279.52-21.8 280.9-21.25 282.27-20.7 283.17-19.7 284.07-18.7 284.32-17.2L284.32-17.2 284.07-17.05Q285.32-19.25 287.4-20.53 289.47-21.8 291.82-21.8L291.82-21.8Q294.87-21.8 296.7-20.05 298.52-18.3 298.57-15.55L298.57-15.55 298.57 0 293.47 0 293.47-13.6Q293.42-15.15 292.75-16.2 292.07-17.25 290.37-17.35L290.37-17.35Q288.57-17.35 287.2-16.25 285.82-15.15 285.07-13.4 284.32-11.65 284.27-9.65L284.27-9.65 284.27 0 279.12 0 279.12-13.6Q279.07-15.15 278.37-16.2 277.67-17.25 275.92-17.35L275.92-17.35Q274.12-17.35 272.77-16.25 271.42-15.15 270.7-13.38 269.97-11.6 269.97-9.65L269.97-9.65 269.97 0 264.82 0 264.82-20.95ZM315.22 0.5L315.22 0.5Q312.27 0.5 309.87-0.73 307.47-1.95 306.07-4.4 304.67-6.85 304.67-10.45L304.67-10.45Q304.67-14 306.15-16.55 307.62-19.1 310.05-20.48 312.47-21.85 315.32-21.85L315.32-21.85Q318.32-21.85 320.25-20.58 322.17-19.3 323.27-17.6L323.27-17.6 322.92-16.8 323.42-20.95 328.17-20.95 328.17 0 323.02 0 323.02-5.25 323.57-4Q323.37-3.6 322.72-2.88 322.07-2.15 321-1.35 319.92-0.55 318.5-0.03 317.07 0.5 315.22 0.5ZM316.62-3.7L316.62-3.7Q318.27-3.7 319.57-4.3 320.87-4.9 321.77-6 322.67-7.1 323.02-8.6L323.02-8.6 323.02-12.95Q322.62-14.35 321.67-15.38 320.72-16.4 319.4-17 318.07-17.6 316.47-17.6L316.47-17.6Q314.67-17.6 313.17-16.73 311.67-15.85 310.77-14.3 309.87-12.75 309.87-10.7L309.87-10.7Q309.87-8.75 310.8-7.15 311.72-5.55 313.27-4.63 314.82-3.7 316.62-3.7ZM338.07-20.9L338.07-30.15 343.22-30.15 343.22-20.9 348.82-20.9 348.82-16.85 343.22-16.85 343.22 0 338.07 0 338.07-16.85 334.37-16.85 334.37-20.9 338.07-20.9Z" fill="#000000" data-fill-palette-color="secondary"></path><path d="M377.22 0.5L377.22 0.5Q374.27 0.5 371.92-0.88 369.57-2.25 368.22-4.8 366.87-7.35 366.87-10.75L366.87-10.75Q366.87-14.25 368.32-16.73 369.77-19.2 372.24-20.53 374.72-21.85 377.82-21.85L377.82-21.85Q380.22-21.85 382.39-20.88 384.57-19.9 385.77-18.15L385.77-18.15 385.62-16.4 385.62-38.85 390.72-38.85 390.72 0 385.57 0 385.57-4.95 386.12-3.6Q384.57-1.85 382.32-0.68 380.07 0.5 377.22 0.5ZM378.82-3.85L378.82-3.85Q380.57-3.85 381.92-4.45 383.27-5.05 384.22-6.18 385.17-7.3 385.57-8.8L385.57-8.8 385.57-13Q385.22-14.4 384.24-15.48 383.27-16.55 381.87-17.15 380.47-17.75 378.82-17.75L378.82-17.75Q376.97-17.75 375.44-16.88 373.92-16 372.99-14.45 372.07-12.9 372.07-10.85L372.07-10.85Q372.07-8.9 372.99-7.3 373.92-5.7 375.47-4.78 377.02-3.85 378.82-3.85ZM407.37 0.5L407.37 0.5Q404.42 0.5 402.02-0.73 399.62-1.95 398.22-4.4 396.82-6.85 396.82-10.45L396.82-10.45Q396.82-14 398.29-16.55 399.77-19.1 402.19-20.48 404.62-21.85 407.47-21.85L407.47-21.85Q410.47-21.85 412.39-20.58 414.32-19.3 415.41-17.6L415.41-17.6 415.07-16.8 415.57-20.95 420.32-20.95 420.32 0 415.16 0 415.16-5.25 415.72-4Q415.52-3.6 414.87-2.88 414.22-2.15 413.14-1.35 412.07-0.55 410.64-0.03 409.22 0.5 407.37 0.5ZM408.77-3.7L408.77-3.7Q410.42-3.7 411.72-4.3 413.02-4.9 413.91-6 414.82-7.1 415.16-8.6L415.16-8.6 415.16-12.95Q414.77-14.35 413.82-15.38 412.87-16.4 411.54-17 410.22-17.6 408.62-17.6L408.62-17.6Q406.82-17.6 405.32-16.73 403.82-15.85 402.92-14.3 402.02-12.75 402.02-10.7L402.02-10.7Q402.02-8.75 402.94-7.15 403.87-5.55 405.42-4.63 406.97-3.7 408.77-3.7ZM428.21-20.95L432.81-20.95 433.26-16.15 433.06-16.8Q434.11-19.05 436.31-20.43 438.51-21.8 441.51-21.8L441.51-21.8Q444.46-21.8 446.39-20.05 448.31-18.3 448.36-15.5L448.36-15.5 448.36 0 443.21 0 443.21-13.7Q443.16-15.3 442.26-16.32 441.36-17.35 439.46-17.4L439.46-17.4Q437.76-17.4 436.36-16.38 434.96-15.35 434.16-13.6 433.36-11.85 433.36-9.55L433.36-9.55 433.36 0 428.21 0 428.21-20.95Z" fill="#000000" data-fill-palette-color="primary"></path><path d="M468.21-20.95L472.81-20.95 473.26-16.45 473.06-16.8Q474.26-19.15 476.36-20.48 478.46-21.8 481.21-21.8L481.21-21.8Q482.91-21.8 484.28-21.25 485.66-20.7 486.56-19.7 487.46-18.7 487.71-17.2L487.71-17.2 487.46-17.05Q488.71-19.25 490.78-20.53 492.86-21.8 495.21-21.8L495.21-21.8Q498.26-21.8 500.08-20.05 501.91-18.3 501.96-15.55L501.96-15.55 501.96 0 496.86 0 496.86-13.6Q496.81-15.15 496.13-16.2 495.46-17.25 493.76-17.35L493.76-17.35Q491.96-17.35 490.58-16.25 489.21-15.15 488.46-13.4 487.71-11.65 487.66-9.65L487.66-9.65 487.66 0 482.51 0 482.51-13.6Q482.46-15.15 481.76-16.2 481.06-17.25 479.31-17.35L479.31-17.35Q477.51-17.35 476.16-16.25 474.81-15.15 474.08-13.38 473.36-11.6 473.36-9.65L473.36-9.65 473.36 0 468.21 0 468.21-20.95ZM516.56 0.85L516.56 0.85Q513.66 0.85 511.81-0.9 509.96-2.65 509.86-5.4L509.86-5.4 509.86-20.95 515.01-20.95 515.01-7.25Q515.11-5.65 515.93-4.63 516.76-3.6 518.61-3.55L518.61-3.55Q520.31-3.55 521.63-4.58 522.96-5.6 523.73-7.38 524.51-9.15 524.51-11.45L524.51-11.45 524.51-20.95 529.66-20.95 529.66 0 525.01 0 524.61-4.85 524.81-4.05Q524.16-2.65 522.96-1.53 521.76-0.4 520.11 0.23 518.46 0.85 516.56 0.85ZM537.55-20.95L542.15-20.95 542.65-14.95 542.4-15.75Q543.25-17.65 544.8-19 546.35-20.35 548.03-21.08 549.7-21.8 550.85-21.8L550.85-21.8 550.6-16.7Q548.2-16.85 546.43-15.8 544.65-14.75 543.65-13 542.65-11.25 542.65-9.25L542.65-9.25 542.65 0 537.55 0 537.55-20.95ZM565.45 0.5L565.45 0.5Q562.5 0.5 560.1-0.73 557.7-1.95 556.3-4.4 554.9-6.85 554.9-10.45L554.9-10.45Q554.9-14 556.38-16.55 557.85-19.1 560.28-20.48 562.7-21.85 565.55-21.85L565.55-21.85Q568.55-21.85 570.48-20.58 572.4-19.3 573.5-17.6L573.5-17.6 573.15-16.8 573.65-20.95 578.4-20.95 578.4 0 573.25 0 573.25-5.25 573.8-4Q573.6-3.6 572.95-2.88 572.3-2.15 571.23-1.35 570.15-0.55 568.73-0.03 567.3 0.5 565.45 0.5ZM566.85-3.7L566.85-3.7Q568.5-3.7 569.8-4.3 571.1-4.9 572-6 572.9-7.1 573.25-8.6L573.25-8.6 573.25-12.95Q572.85-14.35 571.9-15.38 570.95-16.4 569.63-17 568.3-17.6 566.7-17.6L566.7-17.6Q564.9-17.6 563.4-16.73 561.9-15.85 561-14.3 560.1-12.75 560.1-10.7L560.1-10.7Q560.1-8.75 561.03-7.15 561.95-5.55 563.5-4.63 565.05-3.7 566.85-3.7ZM591.45 0L586.3 0 586.3-38.85 591.3-38.85 591.3-16.2 591.25-17.05Q592.3-19.1 594.45-20.45 596.6-21.8 599.6-21.8L599.6-21.8Q602.55-21.8 604.47-20.05 606.4-18.3 606.45-15.5L606.45-15.5 606.45 0 601.3 0 601.3-13.7Q601.25-15.3 600.35-16.32 599.45-17.35 597.55-17.4L597.55-17.4Q595.85-17.4 594.45-16.38 593.05-15.35 592.25-13.58 591.45-11.8 591.45-9.55L591.45-9.55 591.45 0Z" fill="#000000" data-fill-palette-color="secondary"></path></g></svg></g></svg></g></svg></g></svg></g><g transform="matrix(1,0,0,1,407.5454154004293,0)"><svg viewBox="0 0 120.38127929389114 120.38127929389114" height="120.38127929389114" width="120.38127929389114"><g data-palette-color="#454545"><rect width="32.904216340330244" height="120.38127929389114" fill="#000000" stroke="transparent" data-fill-palette-color="accent" x="0" fill-opacity="1"></rect><rect width="32.904216340330244" height="120.38127929389114" fill="#000000" stroke="transparent" data-fill-palette-color="accent" x="40.12709309796371" fill-opacity="0.75"></rect><rect width="32.904216340330244" height="120.38127929389114" fill="#000000" stroke="transparent" data-fill-palette-color="accent" x="80.25418619592742" fill-opacity="0.5"></rect></g></svg></g></svg></g><defs></defs></svg><rect width="395.52" height="90.18904341234112" fill="none" stroke="none" visibility="hidden"></rect></g></svg></g></svg>